<?xml version="1.0" standalone="no"?>
<!DOCTYPE svg PUBLIC "-//W3C//DTD SVG 20010904//EN"
 "http://www.w3.org/TR/2001/REC-SVG-20010904/DTD/svg10.dtd">
<svg version="1.0" xmlns="http://www.w3.org/2000/svg"
 width="311.000000pt" height="311.000000pt" viewBox="0 0 311.000000 311.000000"
 preserveAspectRatio="xMidYMid meet">
<metadata>
Created by potrace 1.11, written by Peter Selinger 2001-2013
</metadata>
<g transform="translate(0.000000,311.000000) scale(0.100000,-0.100000)"
fill="#000000" stroke="none">
<path d="M898 2963 l-3 -78 -37 -3 -38 -3 0 -1060 0 -1059 91 -183 c50 -100
134 -264 186 -365 84 -161 97 -181 108 -165 6 10 83 158 169 329 86 171 163
319 169 329 11 14 36 -31 182 -329 94 -190 172 -346 175 -346 3 0 85 164 183
364 l177 364 0 1060 0 1061 -27 3 c-28 3 -28 4 -31 81 l-3 77 -89 0 -90 0 0
-80 0 -80 -50 0 -50 0 0 80 0 80 -85 0 -84 0 -3 -77 -3 -78 -45 0 -45 0 -3 78
-3 77 -84 0 -85 0 0 -80 0 -80 -55 0 -55 0 0 80 0 81 -92 -3 -93 -3 -3 -70
c-2 -40 -8 -73 -15 -77 -7 -4 -29 -8 -49 -8 l-38 0 0 80 0 80 -90 0 -89 0 -3
-77z"/>
</g>
</svg>
